<?xml version="1.0" encoding="utf-8"?>
<!-- Generator: Adobe Illustrator 19.0.0, SVG Export Plug-In . SVG Version: 6.00 Build 0)  -->
<svg version="1.1" id="Capa_1" xmlns="http://www.w3.org/2000/svg" xmlns:xlink="http://www.w3.org/1999/xlink" x="0px" y="0px"
	 viewBox="0 0 50 50" style="enable-background:new 0 0 50 50;" xml:space="preserve">
<style type="text/css">
	.st0{fill:#020002;}
</style>
<path id="XMLID_16_" class="st0" d="M43.4,39.8L43.4,39.8l-28.7,0l-0.8-4.5h31.5L50,15.2L9.4,10.4L7.5,0h0H0v2.3l5.6,0l6.8,37.5
	c-2.7,0.1-4.9,2.3-4.9,5.1c0,2.8,2.3,5.1,5.1,5.1c2.8,0,5.1-2.3,5.1-5.1c0-1.1-0.3-2-0.9-2.9h22.1c-0.6,0.8-0.9,1.8-0.9,2.9
	c0,2.8,2.3,5.1,5.1,5.1c2.8,0,5.1-2.3,5.1-5.1C48.3,42.1,46.1,39.9,43.4,39.8z M47.2,17.2L43.6,33H13.5L9.8,12.7L47.2,17.2z
	 M12.6,47.7c-1.6,0-2.9-1.3-2.9-2.9S11,42,12.6,42s2.9,1.3,2.9,2.9S14.2,47.7,12.6,47.7z M43.1,47.7c-1.6,0-2.9-1.3-2.9-2.9
	s1.3-2.9,2.9-2.9c1.6,0,2.9,1.3,2.9,2.9S44.7,47.7,43.1,47.7z"/>
</svg>
